<?xml version="1.0" encoding="iso-8859-1"?>
<!-- Generator: Adobe Illustrator 19.0.0, SVG Export Plug-In . SVG Version: 6.00 Build 0)  -->
<svg version="1.1" id="Layer_1" xmlns="http://www.w3.org/2000/svg" xmlns:xlink="http://www.w3.org/1999/xlink" x="0px" y="0px"
	 viewBox="0 0 512 512" style="enable-background:new 0 0 512 512;" xml:space="preserve">
<circle style="fill:#F2CF61;" cx="256" cy="256" r="256"/>
<path style="fill:#F5F5F5;" d="M188,60h176c4.4,0,8,3.6,8,8v328c0,4.4-3.6,8-8,8H116c-4.4,0-8-3.6-8-8V144L188,60z"/>
<path style="fill:#E6E6E6;" d="M180,144c4.4,0,8-3.6,8-8V60l-80,84H180z"/>
<circle style="fill:#2179A6;" cx="348" cy="380" r="52"/>
<g>
	<path style="fill:#F5F5F5;" d="M348,412c-2.208,0-4-1.788-4-4v-56c0-2.212,1.792-4,4-4s4,1.788,4,4v56
		C352,410.212,350.208,412,348,412z"/>
	<path style="fill:#F5F5F5;" d="M368,376c-1.024,0-2.048-0.392-2.828-1.172L348,357.656l-17.172,17.172
		c-1.564,1.564-4.092,1.564-5.656,0s-1.564-4.092,0-5.656l20-20c1.564-1.564,4.092-1.564,5.656,0l20,20
		c1.564,1.564,1.564,4.092,0,5.656C370.048,375.608,369.024,376,368,376z"/>
</g>
<g>
</g>
<g>
</g>
<g>
</g>
<g>
</g>
<g>
</g>
<g>
</g>
<g>
</g>
<g>
</g>
<g>
</g>
<g>
</g>
<g>
</g>
<g>
</g>
<g>
</g>
<g>
</g>
<g>
</g>
</svg>
